<?xml version="1.0" standalone="no"?><!DOCTYPE svg PUBLIC "-//W3C//DTD SVG 1.1//EN" "http://www.w3.org/Graphics/SVG/1.1/DTD/svg11.dtd"><svg t="1555555707723" class="icon" style="" viewBox="0 0 1024 1024" version="1.1" xmlns="http://www.w3.org/2000/svg" p-id="1649" xmlns:xlink="http://www.w3.org/1999/xlink" width="200" height="200"><defs><style type="text/css"></style></defs><path d="M578.56 417.28v-39.936c15.872-5.12 29.184-12.288 40.448-20.48s20.48-17.92 28.16-28.672h40.96V727.04h-60.416V418.304h-48.64l-0.512-1.024z m-86.528 309.248h58.88v-62.464H492.032v62.464z m0-112.128h58.88v-62.464H492.032V614.4zM310.784 417.28v-39.936c15.872-5.12 29.184-12.288 40.448-20.48s20.48-17.92 28.16-28.672h40.96V727.04H359.936V418.304h-48.64l-0.512-1.024z m-191.488 34.304h2.048V295.936c0-79.36 98.816-174.08 178.176-174.08h155.648v-5.12c0-42.496-34.816-77.312-77.312-77.312H119.808c-42.496 0-77.312 34.816-77.312 77.312v258.048c0 41.984 34.816 76.8 76.8 76.8m2.048 275.456v-155.648h-2.048c-42.496 0-77.312 34.816-77.312 77.312v258.048c0 42.496 34.816 77.312 77.312 77.312h258.048c42.496 0 77.312-34.816 77.312-77.312v-5.12H299.008C220.16 901.12 121.344 806.4 121.344 727.04m783.36-431.104v155.648h5.632c42.496 0 77.312-34.816 77.312-77.312V116.224c0-42.496-34.816-77.312-77.312-77.312h-258.048c-42.496 0-77.312 34.816-77.312 77.312v5.12h155.648c79.36 0.512 174.08 95.232 174.08 174.592m82.944 353.28v258.048c0 42.496-34.816 77.312-77.312 77.312h-258.048c-42.496 0-77.312-34.816-77.312-77.312v-5.12h155.648c79.36 0 174.08-95.232 174.08-174.08v-155.648h5.632c42.496-1.024 77.312 33.792 77.312 76.8" p-id="1650"></path></svg>