<?xml version="1.0" standalone="no"?><!DOCTYPE svg PUBLIC "-//W3C//DTD SVG 1.1//EN" "http://www.w3.org/Graphics/SVG/1.1/DTD/svg11.dtd"><svg t="1555555714578" class="icon" style="" viewBox="0 0 1024 1024" version="1.1" xmlns="http://www.w3.org/2000/svg" p-id="1890" xmlns:xlink="http://www.w3.org/1999/xlink" width="200" height="200"><defs><style type="text/css"></style></defs><path d="M885.248 237.397333h-143.872V122.368c0-31.744-25.770667-57.514667-57.514667-57.514667H338.944c-31.744 0-57.514667 25.770667-57.514667 57.514667v115.029333H137.728c-15.872 0-28.672 12.8-28.672 28.672s12.8 28.672 28.672 28.672h28.672v574.976c0 63.488 51.541333 114.858667 115.029333 114.858667h459.946667c63.488 0 115.029333-51.541333 115.029333-114.858667V294.741333h28.672c15.872 0 28.672-12.8 28.672-28.672 0.170667-15.872-12.629333-28.672-28.501333-28.672zM338.944 122.368h344.917333v115.029333H338.944V122.368z m459.946667 747.52c0 31.744-25.770667 57.514667-57.514667 57.514667H281.429333c-31.744 0-57.514667-25.770667-57.514666-57.514667v-575.146667h574.976v575.146667z m-201.216-115.029333c15.872 0 28.672-12.8 28.672-28.842667V438.613333c0-15.872-12.8-28.672-28.672-28.672s-28.672 12.8-28.672 28.672v287.402667c0 15.872 12.8 28.842667 28.672 28.842667z m-172.373334 0c15.872 0 28.672-12.8 28.672-28.842667V438.613333c0-15.872-12.8-28.672-28.672-28.672s-28.672 12.8-28.672 28.672v287.402667c-0.170667 15.872 12.8 28.842667 28.672 28.842667z m0 0" p-id="1891"></path></svg>