<?xml version="1.0" standalone="no"?><!DOCTYPE svg PUBLIC "-//W3C//DTD SVG 1.1//EN" "http://www.w3.org/Graphics/SVG/1.1/DTD/svg11.dtd"><svg t="1555555595920" class="icon" style="" viewBox="0 0 1029 1024" version="1.1" xmlns="http://www.w3.org/2000/svg" p-id="817" xmlns:xlink="http://www.w3.org/1999/xlink" width="200.9765625" height="200"><defs><style type="text/css"></style></defs><path d="M686.779733 725.333333c-12.8 0-21.333333-4.266667-29.866666-12.8L516.113067 571.733333l-140.8 140.8c-17.066667 17.066667-42.666667 17.066667-59.733334 0s-17.066667-42.666667 0-59.733333l170.666667-170.666667c17.066667-17.066667 42.666667-17.066667 59.733333 0l170.666667 170.666667c17.066667 17.066667 17.066667 42.666667 0 59.733333-8.533333 8.533333-17.066667 12.8-29.866667 12.8z" p-id="818"></path><path d="M516.113067 938.666667c-25.6 0-42.666667-17.066667-42.666667-42.666667v-384c0-25.6 17.066667-42.666667 42.666667-42.666667s42.666667 17.066667 42.666666 42.666667v384c0 25.6-17.066667 42.666667-42.666666 42.666667z" p-id="819"></path><path d="M874.513067 827.733333c-17.066667 0-29.866667-8.533333-38.4-21.333333-12.8-21.333333-4.266667-46.933333 17.066666-59.733333 38.4-21.333333 68.266667-59.733333 81.066667-102.4 12.8-42.666667 8.533333-89.6-12.8-128-29.866667-55.466667-85.333333-89.6-149.333333-89.6h-55.466667c-21.333333 0-38.4-12.8-42.666667-29.866667-42.666667-157.866667-204.8-256-362.666666-213.333333-76.8 17.066667-140.8 64-179.2 132.266666-42.666667 72.533333-55.466667 149.333333-34.133334 230.4 12.8 46.933333 34.133333 89.6 64 123.733334 17.066667 17.066667 12.8 42.666667-4.266666 59.733333-17.066667 17.066667-42.666667 12.8-59.733334-4.266667-38.4-46.933333-68.266667-98.133333-85.333333-157.866666-25.6-98.133333-12.8-200.533333 42.666667-290.133334S191.8464 128 289.979733 102.4c196.266667-51.2 392.533333 59.733333 456.533334 243.2h25.6c93.866667 0 179.2 51.2 226.133333 132.266667 34.133333 59.733333 38.4 128 21.333333 196.266666-21.333333 64-64 119.466667-123.733333 153.6h-21.333333z" p-id="820"></path><path d="M686.779733 725.333333c-12.8 0-21.333333-4.266667-29.866666-12.8L516.113067 571.733333l-140.8 140.8c-17.066667 17.066667-42.666667 17.066667-59.733334 0s-17.066667-42.666667 0-59.733333l170.666667-170.666667c17.066667-17.066667 42.666667-17.066667 59.733333 0l170.666667 170.666667c17.066667 17.066667 17.066667 42.666667 0 59.733333-8.533333 8.533333-17.066667 12.8-29.866667 12.8z" p-id="821"></path></svg>