<?xml version="1.0" standalone="no"?><!DOCTYPE svg PUBLIC "-//W3C//DTD SVG 1.1//EN" "http://www.w3.org/Graphics/SVG/1.1/DTD/svg11.dtd"><svg t="1555555721061" class="icon" style="" viewBox="0 0 1024 1024" version="1.1" xmlns="http://www.w3.org/2000/svg" p-id="2130" xmlns:xlink="http://www.w3.org/1999/xlink" width="200" height="200"><defs><style type="text/css"></style></defs><path d="M723.005 162.348h-550.798v66.85h237.267v605.405h76.264v-605.405h237.267z" p-id="2131"></path><path d="M650.458 732.816c-9.221-12.156-22.843-18.023-40.447-18.023-15.928 0-28.713 5.449-37.934 16.557-9.641 10.897-14.251 24.311-14.251 40.448 0 17.814 5.030 31.856 15.089 42.334 9.222 9.85 22.006 14.88 37.933 14.88 14.461 0 26.407-4.191 35.837-12.365 7.545-6.707 12.366-15.299 14.88-25.359h-22.215c-2.934 6.287-6.077 11.107-9.85 14.042-4.82 3.562-11.107 5.449-18.862 5.449-8.804 0-15.718-2.935-20.748-8.383-5.031-5.659-7.755-13.833-8.593-24.312h82.154c-0.21-19.282-4.611-34.371-12.994-45.269zM581.717 761.318c1.258-9.222 4.401-16.138 9.011-20.957 5.031-5.030 11.528-7.335 19.91-7.335 17.604 0 27.454 9.431 29.55 28.292h-58.472z" p-id="2132"></path><path d="M775.155 717.726h-25.988l-23.682 34.371-23.891-34.371h-25.988l37.514 50.717-42.334 57.635h26.197l28.502-41.287 28.293 41.287h25.987l-42.124-57.635z" p-id="2133"></path><path d="M851.021 736.169v-18.443h-24.73v-34.999l-22.215 9.222v25.777h-20.119v18.443h20.119v62.872c0 8.593 1.886 15.090 6.077 19.701 4.191 4.82 11.107 7.335 20.328 7.335h17.814v-18.442h-14.251c-2.725 0-4.611-0.838-5.869-2.096-1.258-1.467-1.886-3.563-1.886-6.498v-62.872h24.731z" p-id="2134"></path></svg>