<?xml version="1.0" standalone="no"?><!DOCTYPE svg PUBLIC "-//W3C//DTD SVG 1.1//EN" "http://www.w3.org/Graphics/SVG/1.1/DTD/svg11.dtd"><svg t="1555555696743" class="icon" style="" viewBox="0 0 1024 1024" version="1.1" xmlns="http://www.w3.org/2000/svg" p-id="1292" xmlns:xlink="http://www.w3.org/1999/xlink" width="200" height="200"><defs><style type="text/css"></style></defs><path d="M687.850667 479.637333A213.205333 213.205333 0 0 1 789.333333 661.333333c0 117.824-95.509333 213.333333-213.333333 213.333334H277.333333a42.666667 42.666667 0 0 1-42.666666-42.666667V192a42.666667 42.666667 0 0 1 42.666666-42.666667h277.333334a192 192 0 0 1 133.184 330.304zM576 533.333333H341.333333a21.333333 21.333333 0 0 0-21.333333 21.333334v213.333333a21.333333 21.333333 0 0 0 21.333333 21.333333h234.666667a128 128 0 1 0 0-256z m-21.333333-85.333333a106.666667 106.666667 0 0 0 0-213.333333H341.333333a21.333333 21.333333 0 0 0-21.333333 21.333333v170.666667a21.333333 21.333333 0 0 0 21.333333 21.333333h213.333334z" p-id="1293"></path></svg>